<svg xmlns="http://www.w3.org/2000/svg" width="30" height="30" viewBox="0 0 30 30">
  <path id="alarm_no" d="M4.394-3082.394A14.905,14.905,0,0,1,0-3093a14.9,14.9,0,0,1,4.394-10.606A14.9,14.9,0,0,1,15-3108a14.9,14.9,0,0,1,10.606,4.394A14.9,14.9,0,0,1,30-3093a14.9,14.9,0,0,1-4.393,10.607A14.9,14.9,0,0,1,15-3078,14.9,14.9,0,0,1,4.394-3082.394Zm1.414-19.8A12.914,12.914,0,0,0,2-3093a12.915,12.915,0,0,0,3.808,9.193A12.911,12.911,0,0,0,15-3080a12.911,12.911,0,0,0,9.192-3.808A12.911,12.911,0,0,0,28-3093a12.91,12.91,0,0,0-3.808-9.192A12.914,12.914,0,0,0,15-3106,12.916,12.916,0,0,0,5.808-3102.193ZM14-3086v-2h2v2Zm0-4v-10h2v10Z" transform="translate(0 3108.001)" fill="red"/>
</svg>
