<svg xmlns="http://www.w3.org/2000/svg" xmlns:xlink="http://www.w3.org/1999/xlink" width="16" height="16" viewBox="0 0 16 16">
  <defs>
    <clipPath id="clip-path">
      <rect id="사각형_23115" data-name="사각형 23115" width="16" height="16" fill="#178385"/>
    </clipPath>
  </defs>
  <g id="그룹_22860" data-name="그룹 22860" clip-path="url(#clip-path)">
    <path id="패스_7204" data-name="패스 7204" d="M7,8.15,5.125,6.275a.928.928,0,0,0-.712-.287A1.017,1.017,0,0,0,3.7,6.3a1.054,1.054,0,0,0-.287.7.913.913,0,0,0,.287.7l3.6,3.6a.865.865,0,0,0,.325.212,1.148,1.148,0,0,0,.75,0A.865.865,0,0,0,8.7,11.3l3.6-3.6a.913.913,0,0,0,.287-.7,1.054,1.054,0,0,0-.287-.7,1.017,1.017,0,0,0-.713-.312.928.928,0,0,0-.712.287L9,8.15V1A.965.965,0,0,0,8.712.288a1.024,1.024,0,0,0-1.424,0A.965.965,0,0,0,7,1ZM0,12v2a1.93,1.93,0,0,0,.587,1.413A1.93,1.93,0,0,0,2,16H14a2,2,0,0,0,2-2V12a1,1,0,1,0-2,0v2H2V12a.965.965,0,0,0-.288-.712A.965.965,0,0,0,1,11a.965.965,0,0,0-.712.288A.965.965,0,0,0,0,12" transform="translate(0 0)" fill="#178385"/>
  </g>
</svg>
