<svg xmlns="http://www.w3.org/2000/svg" width="20" height="20" viewBox="0 0 20 20">
  <path id="monitor_make_wh" d="M4,20a4,4,0,0,1-4-4V6.222Q0,6.059.013,5.9A4,4,0,0,1,4,2.222H3.334V0H4.444V2.222H15.556V0h1.111V2.222H16A4,4,0,0,1,19.987,5.9q.013.161.013.325h0V16a4,4,0,0,1-4,4ZM1.112,15.89a3,3,0,0,0,3,3H15.889a3,3,0,0,0,3-3V7.778H1.112Zm9.789.221a2.778,2.778,0,1,0-2.778-2.777q0,.111.009.222l1.007-1.007.786.786L7.567,15.691,5.21,13.333,6,12.548l1.023,1.023q-.007-.119-.007-.238A3.889,3.889,0,1,1,10.9,17.222Z" fill="#fff"/>
</svg>
