<svg id="monitor_to_bu" xmlns="http://www.w3.org/2000/svg" xmlns:xlink="http://www.w3.org/1999/xlink" width="15" height="15" viewBox="0 0 15 15">
  <defs>
    <clipPath id="clip-path">
      <rect id="사각형_22771" data-name="사각형 22771" width="15" height="15" fill="#178385"/>
    </clipPath>
  </defs>
  <g id="그룹_20708" data-name="그룹 20708" clip-path="url(#clip-path)">
    <path id="패스_7184" data-name="패스 7184" d="M3.75,11.542a.641.641,0,1,0-.437-.188.6.6,0,0,0,.437.188m0-3.417a.641.641,0,1,0-.437-.188.6.6,0,0,0,.437.188m0-3.417a.619.619,0,0,0,.438-1.063.619.619,0,1,0-.875.875.6.6,0,0,0,.437.187M6.5,11.542h5.083v-1.25H6.5Zm0-3.417h5.083V6.875H6.5Zm0-3.417h5.083V3.458H6.5ZM1.25,15a1.2,1.2,0,0,1-.875-.375A1.2,1.2,0,0,1,0,13.75V1.25A1.2,1.2,0,0,1,.375.375,1.2,1.2,0,0,1,1.25,0h12.5a1.2,1.2,0,0,1,.875.375A1.2,1.2,0,0,1,15,1.25v12.5A1.282,1.282,0,0,1,13.75,15Zm0-1.25h12.5V1.25H1.25Zm0-12.5v0Z" fill="#178385"/>
  </g>
</svg>
