<svg id="그룹_20246" data-name="그룹 20246" xmlns="http://www.w3.org/2000/svg" xmlns:xlink="http://www.w3.org/1999/xlink" width="24" height="24" viewBox="0 0 24 24">
  <defs>
    <clipPath id="clip-path">
      <rect id="사각형_21992" data-name="사각형 21992" width="14" height="18" fill="none"/>
    </clipPath>
  </defs>
  <rect id="사각형_21993" data-name="사각형 21993" width="24" height="24" fill="none"/>
  <g id="그룹_20156" data-name="그룹 20156" transform="translate(5 3)">
    <g id="그룹_20155" data-name="그룹 20155" clip-path="url(#clip-path)">
      <path id="패스_5582" data-name="패스 5582" d="M11.765,6.235a4.688,4.688,0,0,0,.215-1.4A4.913,4.913,0,0,0,7,0,4.914,4.914,0,0,0,2.02,4.833a4.677,4.677,0,0,0,.215,1.4A6.681,6.681,0,0,0,0,11.209,6.9,6.9,0,0,0,7,18a6.9,6.9,0,0,0,7-6.792,6.682,6.682,0,0,0-2.235-4.974M7.549,11.66v2.33a.549.549,0,0,1-1.1,0V11.66a1.632,1.632,0,0,1-1.129-1.537,1.678,1.678,0,0,1,3.355,0A1.632,1.632,0,0,1,7.549,11.66m2.972-6.321a7.179,7.179,0,0,0-7.042,0,3.382,3.382,0,0,1-.039-.506A3.512,3.512,0,0,1,7,1.379a3.512,3.512,0,0,1,3.56,3.454,3.36,3.36,0,0,1-.039.506" transform="translate(0 -0.001)" fill="#a9d1c8"/>
    </g>
  </g>
</svg>
