<svg xmlns="http://www.w3.org/2000/svg" xmlns:xlink="http://www.w3.org/1999/xlink" width="24" height="24" viewBox="0 0 24 24">
  <defs>
    <clipPath id="clip-path">
      <rect id="사각형_22830" data-name="사각형 22830" width="24" height="24" transform="translate(-0.704 -0.704)" fill="#fff"/>
    </clipPath>
  </defs>
  <g id="그룹_21017" data-name="그룹 21017" transform="translate(0.704 0.703)" clip-path="url(#clip-path)">
    <path id="패스_7189" data-name="패스 7189" d="M1.844,22.591a1.773,1.773,0,0,1-1.3-.548A1.768,1.768,0,0,1,0,20.75V4.649a1.777,1.777,0,0,1,.548-1.3,1.771,1.771,0,0,1,1.3-.55H12.8L10.955,4.649H1.844v16.1H17.967V11.583l1.85-1.848V20.75a1.875,1.875,0,0,1-1.85,1.841H1.844m12.9-19.439,1.261,1.232L8.334,12.016v2.254h2.229l7.7-7.679L19.486,7.81l-8.194,8.21H6.58v-4.7ZM19.486,7.81,14.748,3.153,17.383.527a1.855,1.855,0,0,1,2.624.034l2.066,2.091a1.855,1.855,0,0,1,.519,1.307,1.713,1.713,0,0,1-.552,1.28L19.486,7.81" transform="translate(0 0)" fill="#fff"/>
  </g>
</svg>
