<svg xmlns="http://www.w3.org/2000/svg" xmlns:xlink="http://www.w3.org/1999/xlink" width="16" height="20" viewBox="0 0 16 20">
  <defs>
    <clipPath id="clip-path">
      <rect id="사각형_22829" data-name="사각형 22829" width="16" height="20" transform="translate(-0.153 0.111)" fill="#fff"/>
    </clipPath>
  </defs>
  <g id="그룹_21016" data-name="그룹 21016" transform="translate(0.152 -0.111)" clip-path="url(#clip-path)">
    <path id="패스_7188" data-name="패스 7188" d="M3.794,18.478h8.254v-3.1a4.073,4.073,0,0,0-1.2-2.978,3.959,3.959,0,0,0-2.926-1.214A3.958,3.958,0,0,0,4.994,12.4a4.073,4.073,0,0,0-1.2,2.978ZM0,20.169V18.478H2.138v-3.1A5.735,5.735,0,0,1,5.6,10.088,5.768,5.768,0,0,1,3.084,7.953a5.658,5.658,0,0,1-.946-3.182V1.7H0V0H15.847V1.7H13.709V4.771a5.658,5.658,0,0,1-.946,3.182,5.771,5.771,0,0,1-2.515,2.135,5.735,5.735,0,0,1,3.461,5.291v3.1h2.138v1.692Z" transform="translate(-0.076 0.027)" fill="#fff"/>
  </g>
</svg>
